<svg width="80" height="93" viewBox="0 0 80 93" fill="none" xmlns="http://www.w3.org/2000/svg">
<g filter="url(#filter0_d_2_15)">
<mask id="path-1-inside-1_2_15" fill="white">
<path d="M14 4C14 1.79086 15.7909 0 18 0H45C62.1208 0 76 13.8792 76 31V81C76 83.2091 74.2091 85 72 85H18C15.7909 85 14 83.2091 14 81V4Z"/>
</mask>
<path d="M14 4C14 1.79086 15.7909 0 18 0H45C62.1208 0 76 13.8792 76 31V81C76 83.2091 74.2091 85 72 85H18C15.7909 85 14 83.2091 14 81V4Z" fill="#D9D9D9"/>
<path d="M18 5H45V-5H18V5ZM71 31V81H81V31H71ZM72 80H18V90H72V80ZM19 81V4H9V81H19ZM18 80C18.5523 80 19 80.4477 19 81H9C9 85.9706 13.0294 90 18 90V80ZM71 81C71 80.4477 71.4477 80 72 80V90C76.9706 90 81 85.9706 81 81H71ZM45 5C59.3594 5 71 16.6406 71 31H81C81 11.1178 64.8823 -5 45 -5V5ZM18 -5C13.0294 -5 9 -0.970563 9 4H19C19 4.55228 18.5523 5 18 5V-5Z" fill="#FF0000" mask="url(#path-1-inside-1_2_15)"/>
</g>
<rect y="40" width="47" height="24" rx="4" fill="#FF0000"/>
<path d="M9.14773 58V46.3636H13.5114C14.4053 46.3636 15.1553 46.5303 15.7614 46.8636C16.3712 47.197 16.8314 47.6553 17.142 48.2386C17.4564 48.8182 17.6136 49.4773 17.6136 50.2159C17.6136 50.9621 17.4564 51.625 17.142 52.2045C16.8277 52.7841 16.3636 53.2405 15.75 53.5739C15.1364 53.9034 14.3807 54.0682 13.483 54.0682H10.5909V52.3352H13.1989C13.7216 52.3352 14.1496 52.2443 14.483 52.0625C14.8163 51.8807 15.0625 51.6307 15.2216 51.3125C15.3845 50.9943 15.4659 50.6288 15.4659 50.2159C15.4659 49.803 15.3845 49.4394 15.2216 49.125C15.0625 48.8106 14.8144 48.5663 14.4773 48.392C14.1439 48.214 13.714 48.125 13.1875 48.125H11.2557V58H9.14773ZM23.3878 58H19.4446V46.3636H23.4673C24.6226 46.3636 25.6151 46.5966 26.4446 47.0625C27.2779 47.5246 27.9181 48.1894 28.3651 49.0568C28.812 49.9242 29.0355 50.9621 29.0355 52.1705C29.0355 53.3826 28.8101 54.4242 28.3594 55.2955C27.9124 56.1667 27.2666 56.8352 26.4219 57.3011C25.581 57.767 24.5696 58 23.3878 58ZM21.5526 56.1761H23.2855C24.0961 56.1761 24.7723 56.0284 25.3139 55.733C25.8556 55.4337 26.2628 54.9886 26.5355 54.3977C26.8082 53.803 26.9446 53.0606 26.9446 52.1705C26.9446 51.2803 26.8082 50.5417 26.5355 49.9545C26.2628 49.3636 25.8594 48.9223 25.3253 48.6307C24.795 48.3352 24.1359 48.1875 23.348 48.1875H21.5526V56.1761ZM31.0384 58V46.3636H38.4929V48.1307H33.1463V51.2898H37.9815V53.0568H33.1463V58H31.0384Z" fill="white"/>
<defs>
<filter id="filter0_d_2_15" x="10" y="0" width="70" height="93" filterUnits="userSpaceOnUse" color-interpolation-filters="sRGB">
<feFlood flood-opacity="0" result="BackgroundImageFix"/>
<feColorMatrix in="SourceAlpha" type="matrix" values="0 0 0 0 0 0 0 0 0 0 0 0 0 0 0 0 0 0 127 0" result="hardAlpha"/>
<feOffset dy="4"/>
<feGaussianBlur stdDeviation="2"/>
<feComposite in2="hardAlpha" operator="out"/>
<feColorMatrix type="matrix" values="0 0 0 0 0 0 0 0 0 0 0 0 0 0 0 0 0 0 0.25 0"/>
<feBlend mode="normal" in2="BackgroundImageFix" result="effect1_dropShadow_2_15"/>
<feBlend mode="normal" in="SourceGraphic" in2="effect1_dropShadow_2_15" result="shape"/>
</filter>
</defs>
</svg>
